<?xml version="1.0" encoding="UTF-8" standalone="no"?>
<svg
   xmlns:dc="http://purl.org/dc/elements/1.1/"
   xmlns:cc="http://creativecommons.org/ns#"
   xmlns:rdf="http://www.w3.org/1999/02/22-rdf-syntax-ns#"
   xmlns:svg="http://www.w3.org/2000/svg"
   xmlns="http://www.w3.org/2000/svg"
   xmlns:sodipodi="http://sodipodi.sourceforge.net/DTD/sodipodi-0.dtd"
   xmlns:inkscape="http://www.inkscape.org/namespaces/inkscape"
   width="525.99023mm"
   height="209.27548mm"
   viewBox="0 0 525.99023 209.27548"
   version="1.1"
   id="svg8"
   inkscape:version="1.0.2 (e86c870879, 2021-01-15, custom)"
   sodipodi:docname="Dankos.svg">
  <defs
     id="defs2" />
  <sodipodi:namedview
     id="base"
     pagecolor="#ffffff"
     bordercolor="#666666"
     borderopacity="1.0"
     inkscape:pageopacity="0.0"
     inkscape:pageshadow="2"
     inkscape:zoom="0.24748737"
     inkscape:cx="1104.9108"
     inkscape:cy="372.59854"
     inkscape:document-units="mm"
     inkscape:current-layer="layer1"
     inkscape:document-rotation="0"
     showgrid="false"
     showguides="true"
     inkscape:guide-bbox="true"
     inkscape:window-width="1366"
     inkscape:window-height="715"
     inkscape:window-x="-8"
     inkscape:window-y="-8"
     inkscape:window-maximized="1" />
  <metadata
     id="metadata5">
    <rdf:RDF>
      <cc:Work
         rdf:about="">
        <dc:format>image/svg+xml</dc:format>
        <dc:type
           rdf:resource="http://purl.org/dc/dcmitype/StillImage" />
        <dc:title></dc:title>
      </cc:Work>
    </rdf:RDF>
  </metadata>
  <g
     inkscape:label="Layer 1"
     inkscape:groupmode="layer"
     id="layer1"
     transform="translate(139.76758,44.410259)">
    <path
       style="color:#000000;font-style:normal;font-variant:normal;font-weight:normal;font-stretch:normal;font-size:medium;line-height:normal;font-family:sans-serif;font-variant-ligatures:normal;font-variant-position:normal;font-variant-caps:normal;font-variant-numeric:normal;font-variant-alternates:normal;font-variant-east-asian:normal;font-feature-settings:normal;font-variation-settings:normal;text-indent:0;text-align:start;text-decoration:none;text-decoration-line:none;text-decoration-style:solid;text-decoration-color:#000000;letter-spacing:normal;word-spacing:normal;text-transform:none;writing-mode:lr-tb;direction:ltr;text-orientation:mixed;dominant-baseline:auto;baseline-shift:baseline;text-anchor:start;white-space:normal;shape-padding:0;shape-margin:0;inline-size:0;clip-rule:nonzero;display:inline;overflow:visible;visibility:visible;isolation:auto;mix-blend-mode:normal;color-interpolation:sRGB;color-interpolation-filters:linearRGB;solid-color:#000000;solid-opacity:1;vector-effect:none;fill:#3065ac;fill-opacity:1;fill-rule:evenodd;stroke:none;stroke-linecap:butt;stroke-linejoin:miter;stroke-miterlimit:4;stroke-dasharray:none;stroke-dashoffset:0;stroke-opacity:1;paint-order:stroke fill markers;color-rendering:auto;image-rendering:auto;shape-rendering:auto;text-rendering:auto;enable-background:accumulate;stop-color:#000000"
       d="m -78.578125,41.167969 c -33.665515,0 -61.189455,27.525894 -61.189455,61.191411 0,33.66551 27.52394,61.18945 61.189455,61.18945 33.665512,0 61.191406,-27.52394 61.191406,-61.18945 0,-33.665517 -27.525894,-61.191411 -61.191406,-61.191411 z m 0,21.796875 c 21.886079,0 39.394531,17.508452 39.394531,39.394536 0,21.88607 -17.508452,39.39453 -39.394531,39.39453 -21.886075,0 -39.394535,-17.50846 -39.394535,-39.39453 0,-21.886084 17.50846,-39.394536 39.394535,-39.394536 z"
       id="path858" />
    <path
       style="color:#000000;font-style:normal;font-variant:normal;font-weight:normal;font-stretch:normal;font-size:medium;line-height:normal;font-family:sans-serif;font-variant-ligatures:normal;font-variant-position:normal;font-variant-caps:normal;font-variant-numeric:normal;font-variant-alternates:normal;font-variant-east-asian:normal;font-feature-settings:normal;font-variation-settings:normal;text-indent:0;text-align:start;text-decoration:none;text-decoration-line:none;text-decoration-style:solid;text-decoration-color:#000000;letter-spacing:normal;word-spacing:normal;text-transform:none;writing-mode:lr-tb;direction:ltr;text-orientation:mixed;dominant-baseline:auto;baseline-shift:baseline;text-anchor:start;white-space:normal;shape-padding:0;shape-margin:0;inline-size:0;clip-rule:nonzero;display:inline;overflow:visible;visibility:visible;isolation:auto;mix-blend-mode:normal;color-interpolation:sRGB;color-interpolation-filters:linearRGB;solid-color:#000000;solid-opacity:1;vector-effect:none;fill:#fff114;fill-opacity:1;fill-rule:evenodd;stroke:none;stroke-width:21.796;stroke-linecap:butt;stroke-linejoin:miter;stroke-miterlimit:4;stroke-dasharray:none;stroke-dashoffset:0;stroke-opacity:1;paint-order:stroke fill markers;color-rendering:auto;image-rendering:auto;shape-rendering:auto;text-rendering:auto;enable-background:accumulate;stop-color:#000000"
       d="m -28.284706,102.35886 c 0,27.77579 -22.516731,50.29252 -50.292526,50.29252 -27.775798,0 -50.292528,-22.51673 -50.292528,-50.29252 0,-27.775799 22.51673,-50.29253 50.292528,-50.29253 27.775795,0 50.292526,22.516731 50.292526,50.29253 z"
       id="path860" />
    <path
       style="color:#000000;font-style:normal;font-variant:normal;font-weight:normal;font-stretch:normal;font-size:medium;line-height:normal;font-family:sans-serif;font-variant-ligatures:normal;font-variant-position:normal;font-variant-caps:normal;font-variant-numeric:normal;font-variant-alternates:normal;font-variant-east-asian:normal;font-feature-settings:normal;font-variation-settings:normal;text-indent:0;text-align:start;text-decoration:none;text-decoration-line:none;text-decoration-style:solid;text-decoration-color:#000000;letter-spacing:normal;word-spacing:normal;text-transform:none;writing-mode:lr-tb;direction:ltr;text-orientation:mixed;dominant-baseline:auto;baseline-shift:baseline;text-anchor:start;white-space:normal;shape-padding:0;shape-margin:0;inline-size:0;clip-rule:nonzero;display:inline;overflow:visible;visibility:visible;isolation:auto;mix-blend-mode:normal;color-interpolation:sRGB;color-interpolation-filters:linearRGB;solid-color:#000000;solid-opacity:1;vector-effect:none;fill:#3065ac;fill-opacity:1;fill-rule:evenodd;stroke:none;stroke-linecap:butt;stroke-linejoin:miter;stroke-miterlimit:4;stroke-dasharray:none;stroke-dashoffset:0;stroke-opacity:1;paint-order:stroke fill markers;color-rendering:auto;image-rendering:auto;shape-rendering:auto;text-rendering:auto;enable-background:accumulate;stop-color:#000000"
       d="M 23.472656,40.121094 -12.78125,101.60547 23.365234,164.86523 H 351.9707 l 34.25196,-62.7207 -3.21485,-5.718749 L 351.3418,40.121094 Z M 36.996094,63.794922 H 337.49609 l 21.66016,38.517578 -21.23047,38.87891 H 37.103516 L 14.591797,101.79297 Z"
       id="path868" />
    <path
       style="color:#000000;font-style:normal;font-variant:normal;font-weight:normal;font-stretch:normal;font-size:medium;line-height:normal;font-family:sans-serif;font-variant-ligatures:normal;font-variant-position:normal;font-variant-caps:normal;font-variant-numeric:normal;font-variant-alternates:normal;font-variant-east-asian:normal;font-feature-settings:normal;font-variation-settings:normal;text-indent:0;text-align:start;text-decoration:none;text-decoration-line:none;text-decoration-style:solid;text-decoration-color:#000000;letter-spacing:normal;word-spacing:normal;text-transform:none;writing-mode:lr-tb;direction:ltr;text-orientation:mixed;dominant-baseline:auto;baseline-shift:baseline;text-anchor:start;white-space:normal;shape-padding:0;shape-margin:0;inline-size:0;clip-rule:nonzero;display:inline;overflow:visible;visibility:visible;isolation:auto;mix-blend-mode:normal;color-interpolation:sRGB;color-interpolation-filters:linearRGB;solid-color:#000000;solid-opacity:1;vector-effect:none;fill:#fff114;fill-opacity:1;fill-rule:evenodd;stroke:none;stroke-width:23.674;stroke-linecap:butt;stroke-linejoin:miter;stroke-miterlimit:4;stroke-dasharray:none;stroke-dashoffset:0;stroke-opacity:1;paint-order:stroke fill markers;color-rendering:auto;image-rendering:auto;shape-rendering:auto;text-rendering:auto;enable-background:accumulate;stop-color:#000000"
       d="m 372.69021,102.22841 -27.742,50.80018 H 30.233988 L 0.90448761,101.69924 30.233988,51.957391 H 344.41904 Z"
       id="path870" />
    <path
       id="rect854"
       style="fill:#3065ac;fill-opacity:1;stroke:none;stroke-width:22.2379;stroke-miterlimit:4;stroke-dasharray:none;stroke-opacity:1;paint-order:stroke fill markers"
       d="M -21.012072,-44.410259 H -9.6255407 V 163.90999 H -21.012072 Z" />
    <g
       aria-label="DANKOS"
       id="text864"
       style="font-style:normal;font-weight:normal;font-size:73.2142px;line-height:1.25;font-family:sans-serif;letter-spacing:-0.529167px;fill:#3065ac;fill-opacity:1;stroke:none;stroke-width:1.83035">
      <path
         d="m 35.240829,75.925283 h 19.340275 q 6.54209,0 9.974005,1.000975 4.611637,1.358467 7.900556,4.826131 3.28892,3.467665 5.004878,8.508292 1.715957,5.004877 1.715957,12.369199 0,6.47059 -1.60871,11.15372 -1.966202,5.71986 -5.612612,9.25903 -2.752683,2.68118 -7.435818,4.18264 -3.503414,1.10823 -9.36627,1.10823 H 35.240829 Z m 10.58174,8.865782 v 34.712395 h 7.900556 q 4.432891,0 6.399093,-0.50048 2.573937,-0.64349 4.254146,-2.1807 1.715958,-1.53721 2.788431,-5.04063 1.072474,-3.53916 1.072474,-9.61651 0,-6.077352 -1.072474,-9.330523 -1.072473,-3.25317 -3.002926,-5.076375 -1.930453,-1.823205 -4.89763,-2.466689 -2.216445,-0.500488 -8.687037,-0.500488 z"
         style="font-style:normal;font-variant:normal;font-weight:bold;font-stretch:normal;font-family:Arial;-inkscape-font-specification:'Arial Bold';fill:#3065ac;fill-opacity:1;stroke-width:1.83035"
         id="path876" />
      <path
         d="M 134.8807,128.3335 H 123.36948 L 118.7936,116.42904 H 97.844611 L 93.518968,128.3335 H 82.293743 L 102.70649,75.925283 h 11.18948 z m -19.48327,-20.73449 -7.22132,-19.447528 -7.07833,19.447528 z"
         style="font-style:normal;font-variant:normal;font-weight:bold;font-stretch:normal;font-family:Arial;-inkscape-font-specification:'Arial Bold';fill:#3065ac;fill-opacity:1;stroke-width:1.83035"
         id="path878" />
      <path
         d="M 140.07139,128.3335 V 75.925283 h 10.29575 l 21.44947,34.998387 V 75.925283 h 9.83101 V 128.3335 H 171.03013 L 149.9024,94.157335 V 128.3335 Z"
         style="font-style:normal;font-variant:normal;font-weight:bold;font-stretch:normal;font-family:Arial;-inkscape-font-specification:'Arial Bold';fill:#3065ac;fill-opacity:1;stroke-width:1.83035"
         id="path880" />
      <path
         d="M 192.45093,128.3335 V 75.925283 h 10.58174 v 23.272678 l 21.37798,-23.272678 h 14.22815 l -19.73352,20.412748 20.80599,31.995469 h -13.69191 l -14.4069,-24.5954 -8.57979,8.75853 v 15.83687 z"
         style="font-style:normal;font-variant:normal;font-weight:bold;font-stretch:normal;font-family:Arial;-inkscape-font-specification:'Arial Bold';fill:#3065ac;fill-opacity:1;stroke-width:1.83035"
         id="path882" />
      <path
         d="m 242.50677,102.45113 q 0,-8.007802 2.39519,-13.441669 1.78746,-4.003901 4.86188,-7.185573 3.11017,-3.181672 6.79233,-4.718884 4.89763,-2.07345 11.29673,-2.07345 11.58271,0 18.51804,7.185574 6.97108,7.185574 6.97108,19.983762 0,12.69094 -6.89958,19.87651 -6.89958,7.14982 -18.44655,7.14982 -11.68996,0 -18.58954,-7.11407 -6.89958,-7.14983 -6.89958,-19.66202 z m 10.90348,-0.35749 q 0,8.90153 4.11115,13.51317 4.11115,4.57589 10.43874,4.57589 6.3276,0 10.36725,-4.54014 4.0754,-4.57589 4.0754,-13.69192 0,-9.008775 -3.96815,-13.441666 -3.93241,-4.432892 -10.4745,-4.432892 -6.54209,0 -10.54599,4.50439 -4.0039,4.46864 -4.0039,13.513168 z"
         style="font-style:normal;font-variant:normal;font-weight:bold;font-stretch:normal;font-family:Arial;-inkscape-font-specification:'Arial Bold';fill:#3065ac;fill-opacity:1;stroke-width:1.83035"
         id="path884" />
      <path
         d="m 298.38971,111.28116 10.29574,-1.00097 q 0.92948,5.18362 3.75366,7.61456 2.85993,2.43094 7.68606,2.43094 5.11213,0 7.68606,-2.14494 2.60969,-2.1807 2.60969,-5.07638 0,-1.85895 -1.10822,-3.14592 -1.07248,-1.32272 -3.78941,-2.28795 -1.85896,-0.64348 -8.47254,-2.28794 -8.50829,-2.1092 -11.94021,-5.18362 -4.82613,-4.325647 -4.82613,-10.545994 0,-4.003902 2.25219,-7.471567 2.28795,-3.503414 6.54209,-5.326619 4.2899,-1.823206 10.3315,-1.823206 9.86676,0 14.83589,4.325644 5.00487,4.325644 5.25512,11.546967 l -10.58174,0.464738 q -0.67924,-4.03965 -2.93143,-5.791357 -2.21645,-1.787457 -6.68509,-1.787457 -4.61163,0 -7.22132,1.894704 -1.68021,1.21547 -1.68021,3.25317 0,1.858954 1.57296,3.181672 2.00195,1.680209 9.72376,3.503414 7.72181,1.823205 11.40397,3.789407 3.71791,1.930454 5.79136,5.326624 2.1092,3.36041 2.1092,8.32954 0,4.50439 -2.50244,8.43679 -2.50244,3.93241 -7.07833,5.86286 -4.57588,1.8947 -11.40397,1.8947 -9.93825,0 -15.26487,-4.57588 -5.32662,-4.61164 -6.36334,-13.40593 z"
         style="font-style:normal;font-variant:normal;font-weight:bold;font-stretch:normal;font-family:Arial;-inkscape-font-specification:'Arial Bold';fill:#3065ac;fill-opacity:1;stroke-width:1.83035"
         id="path886" />
    </g>
  </g>
</svg>
